<svg width="1170" height="411" viewBox="0 0 1170 411" fill="none" xmlns="http://www.w3.org/2000/svg">
<g clip-path="url(#clip0_1_3)">
<g filter="url(#filter0_f_1_3)">
<path d="M285 399H885V401H285V399Z" fill="url(#paint0_linear_1_3)"/>
</g>
<g filter="url(#filter1_f_1_3)">
<path d="M285 399H885V401H285V399Z" fill="url(#paint1_linear_1_3)"/>
</g>
<path d="M1050 0H120C108.954 0 100 8.9543 100 20V373C100 384.046 108.954 393 120 393H1050C1061.05 393 1070 384.046 1070 373V20C1070 8.9543 1061.05 0 1050 0Z" fill="url(#paint2_linear_1_3)" fill-opacity="0.03"/>
<path d="M1050 0.5H120C109.23 0.5 100.5 9.23045 100.5 20V373C100.5 383.77 109.23 392.5 120 392.5H1050C1060.77 392.5 1069.5 383.77 1069.5 373V20C1069.5 9.23045 1060.77 0.5 1050 0.5Z" stroke="url(#paint3_linear_1_3)" stroke-opacity="0.08"/>
<path d="M1048 10H122C115.373 10 110 13.6687 110 18.1944V268.806C110 273.331 115.373 277 122 277H1048C1054.63 277 1060 273.331 1060 268.806V18.1944C1060 13.6687 1054.63 10 1048 10Z" fill="url(#paint4_linear_1_3)" fill-opacity="0.04"/>
<path d="M1048 10.5H122C115.649 10.5 110.5 15.6487 110.5 22V389C110.5 395.351 115.649 400.5 122 400.5H1048C1054.35 400.5 1059.5 395.351 1059.5 389V22C1059.5 15.6487 1054.35 10.5 1048 10.5Z" stroke="url(#paint5_linear_1_3)" stroke-opacity="0.12"/>
<path d="M310.5 10V401" stroke="url(#paint6_linear_1_3)" stroke-opacity="0.12"/>
<path d="M134 40C136.209 40 138 38.2091 138 36C138 33.7909 136.209 32 134 32C131.791 32 130 33.7909 130 36C130 38.2091 131.791 40 134 40Z" fill="white" fill-opacity="0.2"/>
<path d="M148 40C150.209 40 152 38.2091 152 36C152 33.7909 150.209 32 148 32C145.791 32 144 33.7909 144 36C144 38.2091 145.791 40 148 40Z" fill="white" fill-opacity="0.2"/>
<path d="M162 40C164.209 40 166 38.2091 166 36C166 33.7909 164.209 32 162 32C159.791 32 158 33.7909 158 36C158 38.2091 159.791 40 162 40Z" fill="white" fill-opacity="0.2"/>
<path d="M282 84H138C133.582 84 130 87.5817 130 92V106C130 110.418 133.582 114 138 114H282C286.418 114 290 110.418 290 106V92C290 87.5817 286.418 84 282 84Z" fill="white" fill-opacity="0.1"/>
<path d="M526 66H374C371.791 66 370 67.7909 370 70C370 72.2091 371.791 74 374 74H526C528.209 74 530 72.2091 530 70C530 67.7909 528.209 66 526 66Z" fill="white" fill-opacity="0.1"/>
<path d="M494 84H374C371.791 84 370 85.7909 370 88C370 90.2091 371.791 92 374 92H494C496.209 92 498 90.2091 498 88C498 85.7909 496.209 84 494 84Z" fill="white" fill-opacity="0.1"/>
<path d="M465 102H374C371.791 102 370 103.791 370 106C370 108.209 371.791 110 374 110H465C467.209 110 469 108.209 469 106C469 103.791 467.209 102 465 102Z" fill="white" fill-opacity="0.1"/>
<path d="M607 66H544C541.791 66 540 67.7909 540 70C540 72.2091 541.791 74 544 74H607C609.209 74 611 72.2091 611 70C611 67.7909 609.209 66 607 66Z" fill="white" fill-opacity="0.1"/>
<path d="M559 84H510C507.791 84 506 85.7909 506 88C506 90.2091 507.791 92 510 92H559C561.209 92 563 90.2091 563 88C563 85.7909 561.209 84 559 84Z" fill="white" fill-opacity="0.1"/>
<path d="M516 102H479C476.791 102 475 103.791 475 106C475 108.209 476.791 110 479 110H516C518.209 110 520 108.209 520 106C520 103.791 518.209 102 516 102Z" fill="white" fill-opacity="0.1"/>
<path d="M727 66H625C622.791 66 621 67.7909 621 70C621 72.2091 622.791 74 625 74H727C729.209 74 731 72.2091 731 70C731 67.7909 729.209 66 727 66Z" fill="white" fill-opacity="0.1"/>
<path d="M655 84H575C572.791 84 571 85.7909 571 88C571 90.2091 572.791 92 575 92H655C657.209 92 659 90.2091 659 88C659 85.7909 657.209 84 655 84Z" fill="white" fill-opacity="0.1"/>
<path d="M590 102H530C527.791 102 526 103.791 526 106C526 108.209 527.791 110 530 110H590C592.209 110 594 108.209 594 106C594 103.791 592.209 102 590 102Z" fill="white" fill-opacity="0.1"/>
<path d="M777 66H745C742.791 66 741 67.7909 741 70C741 72.2091 742.791 74 745 74H777C779.209 74 781 72.2091 781 70C781 67.7909 779.209 66 777 66Z" fill="white" fill-opacity="0.1"/>
<path d="M695 84H671C668.791 84 667 85.7909 667 88C667 90.2091 668.791 92 671 92H695C697.209 92 699 90.2091 699 88C699 85.7909 697.209 84 695 84Z" fill="white" fill-opacity="0.1"/>
<path d="M621 102H604C601.791 102 600 103.791 600 106C600 108.209 601.791 110 604 110H621C623.209 110 625 108.209 625 106C625 103.791 623.209 102 621 102Z" fill="white" fill-opacity="0.1"/>
<path d="M865 66H795C792.791 66 791 67.7909 791 70C791 72.2091 792.791 74 795 74H865C867.209 74 869 72.2091 869 70C869 67.7909 867.209 66 865 66Z" fill="white" fill-opacity="0.1"/>
<path d="M766 84H711C708.791 84 707 85.7909 707 88C707 90.2091 708.791 92 711 92H766C768.209 92 770 90.2091 770 88C770 85.7909 768.209 84 766 84Z" fill="white" fill-opacity="0.1"/>
<path d="M676 102H635C632.791 102 631 103.791 631 106C631 108.209 632.791 110 635 110H676C678.209 110 680 108.209 680 106C680 103.791 678.209 102 676 102Z" fill="white" fill-opacity="0.1"/>
<path d="M526 135H374C371.791 135 370 136.791 370 139C370 141.209 371.791 143 374 143H526C528.209 143 530 141.209 530 139C530 136.791 528.209 135 526 135Z" fill="white" fill-opacity="0.07"/>
<path d="M494 153H374C371.791 153 370 154.791 370 157C370 159.209 371.791 161 374 161H494C496.209 161 498 159.209 498 157C498 154.791 496.209 153 494 153Z" fill="white" fill-opacity="0.07"/>
<path d="M607 135H544C541.791 135 540 136.791 540 139C540 141.209 541.791 143 544 143H607C609.209 143 611 141.209 611 139C611 136.791 609.209 135 607 135Z" fill="white" fill-opacity="0.07"/>
<path d="M572 153H510C507.791 153 506 154.791 506 157C506 159.209 507.791 161 510 161H572C574.209 161 576 159.209 576 157C576 154.791 574.209 153 572 153Z" fill="white" fill-opacity="0.07"/>
<path d="M696 135H625C622.791 135 621 136.791 621 139C621 141.209 622.791 143 625 143H696C698.209 143 700 141.209 700 139C700 136.791 698.209 135 696 135Z" fill="white" fill-opacity="0.07"/>
<path d="M690 153H590C587.791 153 586 154.791 586 157C586 159.209 587.791 161 590 161H690C692.209 161 694 159.209 694 157C694 154.791 692.209 153 690 153Z" fill="white" fill-opacity="0.07"/>
<path d="M732 135H712C709.791 135 708 136.791 708 139C708 141.209 709.791 143 712 143H732C734.209 143 736 141.209 736 139C736 136.791 734.209 135 732 135Z" fill="white" fill-opacity="0.07"/>
<path d="M740 153H708C705.791 153 704 154.791 704 157C704 159.209 705.791 161 708 161H740C742.209 161 744 159.209 744 157C744 154.791 742.209 153 740 153Z" fill="white" fill-opacity="0.07"/>
<path d="M796 135H748C745.791 135 744 136.791 744 139C744 141.209 745.791 143 748 143H796C798.209 143 800 141.209 800 139C800 136.791 798.209 135 796 135Z" fill="white" fill-opacity="0.07"/>
<path d="M827 153H757C754.791 153 753 154.791 753 157C753 159.209 754.791 161 757 161H827C829.209 161 831 159.209 831 157C831 154.791 829.209 153 827 153Z" fill="white" fill-opacity="0.07"/>
<path d="M526 186H374C371.791 186 370 187.791 370 190C370 192.209 371.791 194 374 194H526C528.209 194 530 192.209 530 190C530 187.791 528.209 186 526 186Z" fill="white" fill-opacity="0.03"/>
<path d="M494 204H374C371.791 204 370 205.791 370 208C370 210.209 371.791 212 374 212H494C496.209 212 498 210.209 498 208C498 205.791 496.209 204 494 204Z" fill="white" fill-opacity="0.03"/>
<path d="M607 186H544C541.791 186 540 187.791 540 190C540 192.209 541.791 194 544 194H607C609.209 194 611 192.209 611 190C611 187.791 609.209 186 607 186Z" fill="white" fill-opacity="0.03"/>
<path d="M559 204H510C507.791 204 506 205.791 506 208C506 210.209 507.791 212 510 212H559C561.209 212 563 210.209 563 208C563 205.791 561.209 204 559 204Z" fill="white" fill-opacity="0.03"/>
<path d="M727 186H625C622.791 186 621 187.791 621 190C621 192.209 622.791 194 625 194H727C729.209 194 731 192.209 731 190C731 187.791 729.209 186 727 186Z" fill="white" fill-opacity="0.03"/>
<path d="M655 204H575C572.791 204 571 205.791 571 208C571 210.209 572.791 212 575 212H655C657.209 212 659 210.209 659 208C659 205.791 657.209 204 655 204Z" fill="white" fill-opacity="0.03"/>
<path d="M777 186H745C742.791 186 741 187.791 741 190C741 192.209 742.791 194 745 194H777C779.209 194 781 192.209 781 190C781 187.791 779.209 186 777 186Z" fill="white" fill-opacity="0.03"/>
<path d="M695 204H671C668.791 204 667 205.791 667 208C667 210.209 668.791 212 671 212H695C697.209 212 699 210.209 699 208C699 205.791 697.209 204 695 204Z" fill="white" fill-opacity="0.03"/>
<path d="M865 186H795C792.791 186 791 187.791 791 190C791 192.209 792.791 194 795 194H865C867.209 194 869 192.209 869 190C869 187.791 867.209 186 865 186Z" fill="white" fill-opacity="0.03"/>
<path d="M766 204H711C708.791 204 707 205.791 707 208C707 210.209 708.791 212 711 212H766C768.209 212 770 210.209 770 208C770 205.791 768.209 204 766 204Z" fill="white" fill-opacity="0.03"/>
<path d="M526 237H374C371.791 237 370 238.791 370 241C370 243.209 371.791 245 374 245H526C528.209 245 530 243.209 530 241C530 238.791 528.209 237 526 237Z" fill="white" fill-opacity="0.01"/>
<path d="M494 255H374C371.791 255 370 256.791 370 259C370 261.209 371.791 263 374 263H494C496.209 263 498 261.209 498 259C498 256.791 496.209 255 494 255Z" fill="white" fill-opacity="0.01"/>
<path d="M607 237H544C541.791 237 540 238.791 540 241C540 243.209 541.791 245 544 245H607C609.209 245 611 243.209 611 241C611 238.791 609.209 237 607 237Z" fill="white" fill-opacity="0.01"/>
<path d="M559 255H510C507.791 255 506 256.791 506 259C506 261.209 507.791 263 510 263H559C561.209 263 563 261.209 563 259C563 256.791 561.209 255 559 255Z" fill="white" fill-opacity="0.01"/>
<path d="M727 237H625C622.791 237 621 238.791 621 241C621 243.209 622.791 245 625 245H727C729.209 245 731 243.209 731 241C731 238.791 729.209 237 727 237Z" fill="white" fill-opacity="0.01"/>
<path d="M655 255H575C572.791 255 571 256.791 571 259C571 261.209 572.791 263 575 263H655C657.209 263 659 261.209 659 259C659 256.791 657.209 255 655 255Z" fill="white" fill-opacity="0.01"/>
<path d="M777 237H745C742.791 237 741 238.791 741 241C741 243.209 742.791 245 745 245H777C779.209 245 781 243.209 781 241C781 238.791 779.209 237 777 237Z" fill="white" fill-opacity="0.01"/>
<path d="M695 255H671C668.791 255 667 256.791 667 259C667 261.209 668.791 263 671 263H695C697.209 263 699 261.209 699 259C699 256.791 697.209 255 695 255Z" fill="white" fill-opacity="0.01"/>
<path d="M865 237H795C792.791 237 791 238.791 791 241C791 243.209 792.791 245 795 245H865C867.209 245 869 243.209 869 241C869 238.791 867.209 237 865 237Z" fill="white" fill-opacity="0.01"/>
<path d="M766 255H711C708.791 255 707 256.791 707 259C707 261.209 708.791 263 711 263H766C768.209 263 770 261.209 770 259C770 256.791 768.209 255 766 255Z" fill="white" fill-opacity="0.01"/>
<path d="M282 126H138C133.582 126 130 129.582 130 134V148C130 152.418 133.582 156 138 156H282C286.418 156 290 152.418 290 148V134C290 129.582 286.418 126 282 126Z" fill="white" fill-opacity="0.08"/>
<path d="M282 168H138C133.582 168 130 171.582 130 176V190C130 194.418 133.582 198 138 198H282C286.418 198 290 194.418 290 190V176C290 171.582 286.418 168 282 168Z" fill="white" fill-opacity="0.06"/>
<path d="M282 210H138C133.582 210 130 213.582 130 218V232C130 236.418 133.582 240 138 240H282C286.418 240 290 236.418 290 232V218C290 213.582 286.418 210 282 210Z" fill="white" fill-opacity="0.04"/>
<path d="M282 252H138C133.582 252 130 255.582 130 260V274C130 278.418 133.582 282 138 282H282C286.418 282 290 278.418 290 274V260C290 255.582 286.418 252 282 252Z" fill="white" fill-opacity="0.02"/>
<path d="M282 294H138C133.582 294 130 297.582 130 302V316C130 320.418 133.582 324 138 324H282C286.418 324 290 320.418 290 316V302C290 297.582 286.418 294 282 294Z" fill="white" fill-opacity="0.01"/>
<path d="M282 336H138C133.582 336 130 339.582 130 344V358C130 362.418 133.582 366 138 366H282C286.418 366 290 362.418 290 358V344C290 339.582 286.418 336 282 336Z" fill="url(#paint7_linear_1_3)" fill-opacity="0.01"/>
<path d="M110 59.5H310" stroke="white" stroke-opacity="0.12"/>
<path d="M0 399.5H1170" stroke="url(#paint8_linear_1_3)" stroke-opacity="0.8"/>
</g>
<defs>
<filter id="filter0_f_1_3" x="275" y="389" width="620" height="22" filterUnits="userSpaceOnUse" color-interpolation-filters="sRGB">
<feFlood flood-opacity="0" result="BackgroundImageFix"/>
<feBlend mode="normal" in="SourceGraphic" in2="BackgroundImageFix" result="shape"/>
<feGaussianBlur stdDeviation="5" result="effect1_foregroundBlur_1_3"/>
</filter>
<filter id="filter1_f_1_3" x="284" y="398" width="602" height="4" filterUnits="userSpaceOnUse" color-interpolation-filters="sRGB">
<feFlood flood-opacity="0" result="BackgroundImageFix"/>
<feBlend mode="normal" in="SourceGraphic" in2="BackgroundImageFix" result="shape"/>
<feGaussianBlur stdDeviation="0.5" result="effect1_foregroundBlur_1_3"/>
</filter>
<linearGradient id="paint0_linear_1_3" x1="288.75" y1="400.761" x2="288.844" y2="408.23" gradientUnits="userSpaceOnUse">
<stop stop-color="#030014"/>
<stop offset="0.286458" stop-color="#701EFC"/>
<stop offset="0.515625" stop-color="#CBB3F3"/>
<stop offset="0.786458" stop-color="#030014"/>
</linearGradient>
<linearGradient id="paint1_linear_1_3" x1="288.75" y1="400.761" x2="288.844" y2="408.23" gradientUnits="userSpaceOnUse">
<stop stop-color="#030014"/>
<stop offset="0.286458" stop-color="#701EFC"/>
<stop offset="0.515625" stop-color="#CBB3F3"/>
<stop offset="0.786458" stop-color="#030014"/>
</linearGradient>
<linearGradient id="paint2_linear_1_3" x1="585" y1="0" x2="585" y2="393" gradientUnits="userSpaceOnUse">
<stop stop-color="white"/>
<stop offset="1" stop-color="white" stop-opacity="0"/>
</linearGradient>
<linearGradient id="paint3_linear_1_3" x1="585" y1="-1.66201e-08" x2="585" y2="411.5" gradientUnits="userSpaceOnUse">
<stop stop-color="white"/>
<stop offset="1" stop-color="white" stop-opacity="0"/>
</linearGradient>
<linearGradient id="paint4_linear_1_3" x1="585" y1="10" x2="585" y2="277" gradientUnits="userSpaceOnUse">
<stop stop-color="white"/>
<stop offset="1" stop-color="white" stop-opacity="0"/>
</linearGradient>
<linearGradient id="paint5_linear_1_3" x1="585" y1="10" x2="585" y2="401" gradientUnits="userSpaceOnUse">
<stop stop-color="white"/>
<stop offset="1" stop-color="white" stop-opacity="0"/>
</linearGradient>
<linearGradient id="paint6_linear_1_3" x1="nan" y1="nan" x2="nan" y2="nan" gradientUnits="userSpaceOnUse">
<stop stop-color="white" stop-opacity="0"/>
<stop offset="0.703125" stop-color="white"/>
</linearGradient>
<linearGradient id="paint7_linear_1_3" x1="210" y1="336" x2="210" y2="366" gradientUnits="userSpaceOnUse">
<stop stop-color="white"/>
<stop offset="1" stop-color="white" stop-opacity="0"/>
</linearGradient>
<linearGradient id="paint8_linear_1_3" x1="nan" y1="nan" x2="nan" y2="nan" gradientUnits="userSpaceOnUse">
<stop stop-color="white" stop-opacity="0"/>
<stop offset="0.536458" stop-color="white" stop-opacity="0.2"/>
<stop offset="1" stop-color="white" stop-opacity="0"/>
</linearGradient>
<clipPath id="clip0_1_3">
<rect width="1170" height="411" fill="white"/>
</clipPath>
</defs>
</svg>
